Coordinates
version=1
nRows=38
nColumns=38
inDegrees=no

Units are S.I. units (second, meters, Newtons, ...)
If the header above contains a line with 'inDegrees', this indicates whether rotational values are in degrees (yes) or radians (no).

endheader
time	pelvis_tilt	pelvis_list	pelvis_rotation	pelvis_tx	pelvis_ty	pelvis_tz	hip_flexion_r	hip_adduction_r	hip_rotation_r	knee_angle_r	ankle_angle_r	subtalar_angle_r	mtp_angle_r	hip_flexion_l	hip_adduction_l	hip_rotation_l	knee_angle_l	ankle_angle_l	subtalar_angle_l	mtp_angle_l	lumbar_extension	lumbar_bending	lumbar_rotation	arm_flex_r	arm_add_r	arm_rot_r	elbow_flex_r	pro_sup_r	wrist_flex_r	wrist_dev_r	arm_flex_l	arm_add_l	arm_rot_l	elbow_flex_l	pro_sup_l	wrist_flex_l	wrist_dev_l
1.48	-2.97723	1.42648	-1.78586	0.70437	0.995439	0.938633	-0.33648	0.00157875	-0.0519705	0	0.156479	0	0	0.26018	-0.0585163	-0.473691	0.3483	0.0809376	0	0	-0.293601	-0.0726269	-0.110666	-0.137119	-0.246453	0.137795	0.555292	0.920196	0	0	-0.0700704	-0.407597	0.140304	0.671116	1.28393	0	0
1.49	-2.96312	1.42967	-1.79437	0.703663	1.00487	0.936205	-0.354286	-0.00204071	-0.07173	0	0.17191	0	0	0.254092	-0.0360418	-0.460048	0.268342	0.0732116	0	0	-0.291026	-0.0750702	-0.115876	-0.13632	-0.24485	0.136356	0.552824	0.916216	0	0	-0.0728136	-0.408189	0.132099	0.668196	1.282	0	0
1.5	-2.96894	1.43428	-1.78406	0.702928	1.01401	0.933724	-0.360904	0.000296989	-0.0765047	0	0.181736	0	0	0.248449	-0.0174369	-0.437879	0.191421	0.0658842	0	0	-0.28827	-0.0744481	-0.119506	-0.134423	-0.244271	0.136845	0.55005	0.911676	0	0	-0.0743613	-0.407853	0.123989	0.664009	1.28079	0	0
1.51	-3.01794	1.43388	-1.7299	0.702096	1.02329	0.932166	-0.370628	0.00459572	-0.0793371	0	0.189184	0	0	0.231265	-0.00289174	-0.397972	0.108603	0.0507323	0	0	-0.291997	-0.0686017	-0.123074	-0.131064	-0.244165	0.138331	0.545811	0.904966	0	0	-0.0745596	-0.405988	0.114522	0.657366	1.28087	0	0
1.52	-3.03831	1.43662	-1.706	0.701542	1.0329	0.929766	-0.380816	0.00810341	-0.0817592	0	0.196678	0	0	0.215704	0.0121322	-0.348848	0.0284543	0.0302458	0	0	-0.290589	-0.067299	-0.125404	-0.130205	-0.243093	0.137388	0.543518	0.897612	0	0	-0.0770522	-0.405618	0.105562	0.653202	1.2822	0	0
1.53	-3.06193	1.4361	-1.67632	0.701166	1.04218	0.927548	-0.390027	0.0159469	-0.0769678	0	0.200157	0	0	0.215171	0.0171538	-0.317433	0	0.0232058	0	0	-0.293517	-0.0664337	-0.128854	-0.129505	-0.241152	0.136079	0.541486	0.89395	0	0	-0.0785177	-0.407313	0.0998976	0.650393	1.28238	0	0
1.54	-3.08342	1.43509	-1.65082	0.700946	1.05161	0.925445	-0.403686	0.0199414	-0.0795645	0	0.207815	0	0	0.222441	0.0183171	-0.29907	0	0.0210687	0	0	-0.295867	-0.066379	-0.130357	-0.12889	-0.239452	0.134763	0.538554	0.889823	0	0	-0.0809111	-0.40815	0.0929546	0.647335	1.28262	0	0
1.55	-3.10257	1.43575	-1.62879	0.700655	1.06167	0.923189	-0.411958	0.0231974	-0.0805055	0.00498969	0.21685	0	0	0.229729	0.0201573	-0.287772	0	0.0198495	0	0	-0.297096	-0.0668593	-0.130477	-0.127826	-0.237581	0.13365	0.535048	0.885667	0	0	-0.0824757	-0.409316	0.0864055	0.644274	1.28329	0	0
1.56	-3.11677	1.43538	-1.61461	0.700483	1.07194	0.921202	-0.414956	0.0237469	-0.0877053	0.0241112	0.229723	0	0	0.232375	0.0227991	-0.280989	0	0.0177994	0	0	-0.297913	-0.0686102	-0.128046	-0.127299	-0.23659	0.133281	0.530783	0.88166	0	0	-0.0849772	-0.409671	0.0804633	0.640649	1.28462	0	0
1.57	-3.12389	1.43452	-1.6088	0.700356	1.08265	0.919397	-0.4189	0.0224536	-0.0957925	0.0438001	0.243296	0	0	0.2312	0.0265698	-0.27521	0	0.0168488	0	0	-0.298389	-0.071682	-0.123944	-0.12766	-0.236076	0.133754	0.526378	0.87739	0	0	-0.0876715	-0.409951	0.0756233	0.636786	1.28644	0	0
1.58	-3.13598	1.43236	-1.59962	0.70033	1.09354	0.918052	-0.419049	0.0202651	-0.102	0.0696007	0.25348	0	0	0.225133	0.0295538	-0.265954	0	0.0159863	0	0	-0.29997	-0.0743586	-0.117652	-0.127922	-0.236113	0.13524	0.521222	0.872288	0	0	-0.0897517	-0.409736	0.0719941	0.632426	1.28813	0	0
1.59	-3.12661	1.43114	-1.6124	0.700341	1.10469	0.916588	-0.422298	0.0153126	-0.110216	0.0928449	0.265104	0	0	0.216957	0.0355104	-0.25088	0	0.0122476	0	0	-0.299622	-0.0805518	-0.110986	-0.129373	-0.235499	0.136451	0.515751	0.866444	0	0	-0.0926989	-0.410421	0.0697167	0.62889	1.2897	0	0
1.6	-3.12692	1.43005	-1.61803	0.700207	1.11701	0.915384	-0.423517	0.00541655	-0.128292	0.120487	0.280993	0	0	0.202937	0.0392135	-0.235241	0	0.00769478	0	0	-0.297399	-0.0854776	-0.101962	-0.131678	-0.235315	0.136763	0.509896	0.859902	0	0	-0.0971046	-0.410164	0.0686534	0.625247	1.29114	0	0
1.61	-3.1095	1.42637	-1.6392	0.69997	1.12866	0.914327	-0.421812	-0.00338772	-0.140431	0.157636	0.293136	0	0	0.204113	0.0431111	-0.231222	0.0261562	0.0112181	0	0	-0.298819	-0.092835	-0.094164	-0.134105	-0.2348	0.137308	0.504225	0.852887	0	0	-0.100075	-0.410672	0.0693034	0.622427	1.29226	0	0
1.62	-3.09293	1.42289	-1.65914	0.699613	1.14058	0.913392	-0.42172	-0.0124618	-0.149413	0.191912	0.300286	0	0	0.208385	0.0461469	-0.236628	0.0644897	0.0177626	0	0	-0.299281	-0.0999575	-0.0865965	-0.137387	-0.233839	0.135726	0.498752	0.845882	0	0	-0.103668	-0.41095	0.0704493	0.619867	1.29306	0	0
1.63	-3.07728	1.41925	-1.67776	0.699092	1.15274	0.912656	-0.422135	-0.0218773	-0.155869	0.225505	0.302705	0	0	0.211518	0.0488262	-0.243593	0.0979448	0.0153836	0	0	-0.299307	-0.106798	-0.0794343	-0.141288	-0.232674	0.132195	0.493775	0.839479	0	0	-0.108009	-0.411047	0.0720209	0.617601	1.29373	0	0
1.64	-3.06033	1.41558	-1.69696	0.698365	1.16504	0.912156	-0.420652	-0.0322021	-0.160983	0.262086	0.301507	0	0	0.212234	0.0513451	-0.251014	0.12436	-0.00089384	0	0	-0.299013	-0.113709	-0.0734537	-0.145236	-0.231329	0.128102	0.489071	0.834743	0	0	-0.113244	-0.410912	0.0731479	0.615934	1.29424	0	0
1.65	-3.04056	1.41185	-1.71812	0.697443	1.17742	0.911943	-0.416664	-0.0436349	-0.165272	0.302798	0.296082	0	0	0.21193	0.0531156	-0.261909	0.150103	-0.0199436	0	0	-0.29867	-0.120996	-0.0687829	-0.14957	-0.229574	0.121769	0.485607	0.831768	0	0	-0.119174	-0.41071	0.0737138	0.615075	1.29489	0	0
1.66	-3.01901	1.40782	-1.73936	0.696291	1.18979	0.912081	-0.409911	-0.0558727	-0.170276	0.348941	0.285409	0	0	0.213359	0.0538195	-0.274662	0.183781	-0.0243825	0	0	-0.298828	-0.128302	-0.0658524	-0.154052	-0.22759	0.114133	0.48334	0.830437	0	0	-0.125039	-0.410604	0.0744509	0.614622	1.2956	0	0
1.67	-2.9984	1.40394	-1.75804	0.694925	1.20212	0.912538	-0.399501	-0.0685054	-0.175095	0.400793	0.268553	0	0	0.218607	0.053252	-0.286698	0.229609	-0.00903084	0	0	-0.298916	-0.135026	-0.0647353	-0.15842	-0.225655	0.106362	0.481898	0.830847	0	0	-0.130994	-0.410622	0.0758598	0.614331	1.29572	0	0
1.68	-2.97775	1.39973	-1.77554	0.693483	1.21458	0.913359	-0.385601	-0.0819137	-0.179233	0.458241	0.242924	0	0	0.222963	0.0531965	-0.294487	0.277074	0.0131093	0	0	-0.298842	-0.141719	-0.0653485	-0.162651	-0.223652	0.100288	0.480549	0.83182	0	0	-0.137985	-0.411069	0.0773795	0.615095	1.29526	0	0
1.69	-2.95149	1.39633	-1.79724	0.691972	1.22709	0.914368	-0.365905	-0.0971138	-0.183646	0.521727	0.206492	0	0	0.223865	0.0557359	-0.297894	0.315076	0.0314827	0	0	-0.297477	-0.149126	-0.0677867	-0.166252	-0.221327	0.0969543	0.478181	0.831757	0	0	-0.145846	-0.412487	0.0799383	0.61734	1.29402	0	0
1.7	-2.91595	1.39529	-1.82694	0.690276	1.2396	0.91526	-0.338061	-0.115056	-0.189606	0.591235	0.155375	0	0	0.221915	0.0615754	-0.29922	0.340263	0.0455271	0	0	-0.292839	-0.157152	-0.0717888	-0.169756	-0.218835	0.0955628	0.475283	0.83038	0	0	-0.154781	-0.414901	0.0852017	0.621136	1.29039	0	0
1.71	-2.87565	1.39545	-1.86063	0.688293	1.25201	0.916092	-0.304947	-0.134469	-0.192056	0.662297	0.0919695	0	0	0.214289	0.0715847	-0.295218	0.348783	0.0533653	0	0	-0.286471	-0.164765	-0.0768587	-0.173259	-0.217295	0.0981279	0.473007	0.826203	0	0	-0.164079	-0.417821	0.0940423	0.626392	1.27981	0	0
1.72	-2.83583	1.39673	-1.89333	0.68606	1.26422	0.916759	-0.267696	-0.153402	-0.189808	0.733056	0.0200989	0	0	0.20364	0.0835922	-0.288314	0.347469	0.0582876	0	0	-0.278766	-0.170965	-0.082841	-0.176703	-0.216277	0.101865	0.471699	0.820537	0	0	-0.173525	-0.420432	0.102862	0.632749	1.26915	0	0
1.73	-2.77592	1.40177	-1.9468	0.684016	1.27624	0.916526	-0.231954	-0.166641	-0.167956	0.785596	-0.0490511	0	0	0.19777	0.0975192	-0.28239	0.344944	0.0654872	0	0	-0.265458	-0.179087	-0.088785	-0.181307	-0.214736	0.106285	0.47223	0.810753	0	0	-0.184829	-0.424804	0.112454	0.64295	1.25752	0	0
1.74	-2.7623	1.40127	-1.95347	0.681609	1.28791	0.917518	-0.186968	-0.185194	-0.16947	0.86667	-0.127082	0	0	0.181767	0.106404	-0.273629	0.33974	0.0744617	0	0	-0.261583	-0.17982	-0.0953028	-0.18421	-0.214453	0.108728	0.473768	0.80027	0	0	-0.192765	-0.426552	0.120907	0.650299	1.24668	0	0
1.75	-2.7302	1.40171	-1.98053	0.679853	1.29935	0.917946	-0.15247	-0.192275	-0.149518	0.918862	-0.197674	0	0	0.16986	0.11581	-0.267123	0.338409	0.0859511	0	0	-0.255326	-0.184395	-0.1011	-0.187924	-0.212555	0.107329	0.477799	0.793456	0	0	-0.202553	-0.430833	0.128206	0.661793	1.23669	0	0
1.76	-2.70328	1.3982	-2.00321	0.678111	1.31048	0.918841	-0.122506	-0.206906	-0.130312	0.971609	-0.254839	0	0	0.1535	0.125957	-0.259236	0.33562	0.0945061	0	0	-0.254052	-0.189604	-0.106673	-0.191653	-0.210767	0.101338	0.48442	0.792587	0	0	-0.210484	-0.434966	0.13476	0.672785	1.22821	0	0
1.77	-2.70447	1.39178	-1.99891	0.676659	1.32114	0.9205	-0.091461	-0.215779	-0.11649	1.02107	-0.323319	0	0	0.13235	0.131604	-0.252139	0.332452	0.101061	0	0	-0.258938	-0.191802	-0.11153	-0.193847	-0.209288	0.0930471	0.491746	0.797555	0	0	-0.215162	-0.438476	0.139998	0.680606	1.22222	0	0
1.78	-2.71626	1.38466	-1.98469	0.67535	1.33151	0.922458	-0.0650027	-0.220807	-0.102419	1.06034	-0.372189	0	0	0.109593	0.134892	-0.246293	0.328646	0.106661	0	0	-0.265997	-0.192587	-0.116319	-0.195205	-0.209484	0.0878298	0.499993	0.801933	0	0	-0.217991	-0.44083	0.14235	0.685691	1.22057	0	0
1.79	-2.73382	1.37791	-1.96462	0.67413	1.34164	0.924571	-0.0414945	-0.222357	-0.0885393	1.09371	-0.381424	0	0	0.0858704	0.136408	-0.241365	0.322863	0.111153	0	0	-0.273618	-0.192059	-0.121302	-0.196342	-0.210589	0.082281	0.50911	0.808395	0	0	-0.219002	-0.44303	0.145223	0.688455	1.21981	0	0
1.8	-2.75344	1.37229	-1.94218	0.672912	1.35152	0.926714	-0.0167947	-0.22156	-0.0749776	1.12901	-0.346391	0	0	0.061557	0.137059	-0.23608	0.313693	0.114482	0	0	-0.280701	-0.190375	-0.12658	-0.196767	-0.21196	0.0741323	0.517406	0.820383	0	0	-0.218109	-0.44486	0.148692	0.688792	1.22111	0	0
1.81	-2.77413	1.36761	-1.9182	0.671592	1.3612	0.928864	0.00869892	-0.219306	-0.0623907	1.16256	-0.289309	0	0	0.0363053	0.137502	-0.230365	0.300406	0.116728	0	0	-0.287121	-0.187588	-0.132358	-0.196141	-0.214205	0.0674878	0.524152	0.832763	0	0	-0.215641	-0.445705	0.151622	0.686763	1.22528	0	0
1.82	-2.79961	1.36374	-1.88921	0.670144	1.37072	0.93105	0.0339527	-0.215229	-0.0512566	1.18916	-0.235036	0	0	0.01023	0.136949	-0.223728	0.284113	0.117774	0	0	-0.293015	-0.182898	-0.138305	-0.194439	-0.21712	0.0622521	0.528956	0.844115	0	0	-0.211593	-0.445151	0.153788	0.68206	1.23227	0	0
1.83	-2.8296	1.36038	-1.85483	0.668562	1.3801	0.933262	0.0573832	-0.209724	-0.0433598	1.20679	-0.192843	0	0	-0.0159428	0.135157	-0.215331	0.266606	0.117893	0	0	-0.298535	-0.176316	-0.14502	-0.191516	-0.220989	0.0611373	0.531266	0.852043	0	0	-0.206361	-0.443737	0.155833	0.675527	1.24113	0	0
1.84	-2.86393	1.35898	-1.81591	0.667237	1.3892	0.935277	0.0848574	-0.193987	-0.033208	1.2151	-0.176819	0	0	-0.0387273	0.130637	-0.207486	0.251168	0.118748	0	0	-0.302345	-0.168241	-0.151324	-0.187231	-0.224028	0.0619221	0.530073	0.855611	0	0	-0.199943	-0.44269	0.158367	0.668549	1.25092	0	0
1.85	-2.89869	1.35699	-1.77491	0.665579	1.39823	0.937314	0.105046	-0.186516	-0.0318764	1.21738	-0.148288	0	0	-0.0621857	0.126302	-0.196448	0.234516	0.118375	0	0	-0.306649	-0.159017	-0.158851	-0.182368	-0.226928	0.0619043	0.526777	0.859162	0	0	-0.192063	-0.440906	0.161847	0.660382	1.26138	0	0
